<svg version="1.1" xmlns="http://www.w3.org/2000/svg" viewBox="0 0 2494.4871749198446 257.75877636656213" width="2494.4871749198446" height="257.75877636656213">
  <!-- svg-source:excalidraw -->
  
  <defs>
    <style class="style-fonts">
      @font-face {
        font-family: "Virgil";
        src: url("https://excalidraw.com/Virgil.woff2");
      }
      @font-face {
        font-family: "Cascadia";
        src: url("https://excalidraw.com/Cascadia.woff2");
      }
    </style>
    
  </defs>
  <rect x="0" y="0" width="2494.4871749198446" height="257.75877636656213" fill="#f8f9fa"></rect><g stroke-linecap="round" transform="translate(10 62.23809523809177) rotate(0 688.5000000000007 92.76034056423518)"><path d="M32 0 M32 0 C480.73 -0.85, 928.74 -0.32, 1345 0 M32 0 C362.74 -2.89, 693.28 -2.76, 1345 0 M1345 0 C1367.65 -0.36, 1375.73 12.16, 1377 32 M1345 0 C1366.12 -1.22, 1378.5 8.54, 1377 32 M1377 32 C1376.96 67.02, 1378.52 103.94, 1377 153.52 M1377 32 C1376.76 65.8, 1376.79 98.81, 1377 153.52 M1377 153.52 C1376.95 174.96, 1365.24 185.58, 1345 185.52 M1377 153.52 C1379.16 176.17, 1366.09 184.27, 1345 185.52 M1345 185.52 C850.86 184.15, 355.76 185.1, 32 185.52 M1345 185.52 C989.74 181.94, 634.77 182.56, 32 185.52 M32 185.52 C9.56 185.52, 1.09 173.91, 0 153.52 M32 185.52 C9.38 184.08, -2.28 176.43, 0 153.52 M0 153.52 C-0.8 116.75, -1.14 78.78, 0 32 M0 153.52 C-0.29 122.38, -0.58 91.31, 0 32 M0 32 C1.68 11.59, 9.41 1.25, 32 0 M0 32 C1.24 9.28, 12.82 -0.04, 32 0" stroke="#1e1e1e" stroke-width="1" fill="none"></path></g><g transform="translate(645.042879622345 67.36173241916435) rotate(0 30.031321317731226 14.943941778127453)"><text x="0" y="0" font-family="Virgil, Segoe UI Emoji" font-size="11.955153422501969px" fill="#1e1e1e" text-anchor="start" style="white-space: pre;" direction="ltr" dominant-baseline="text-before-edge">RPCCLient</text><text x="0" y="14.94394177812746" font-family="Virgil, Segoe UI Emoji" font-size="11.955153422501969px" fill="#1e1e1e" text-anchor="start" style="white-space: pre;" direction="ltr" dominant-baseline="text-before-edge"></text></g><g stroke-linecap="round" transform="translate(1242.4526806788813 75.62659698025243) rotate(0 70.45001123974362 52.09031134090145)"><path d="M26.05 0 M26.05 0 C61.74 -0.59, 94.1 -2, 114.85 0 M26.05 0 C49.12 -0.33, 72.73 1.37, 114.85 0 M114.85 0 C132.24 -1.36, 140.37 10.66, 140.9 26.05 M114.85 0 C132.65 1.6, 142.37 9.81, 140.9 26.05 M140.9 26.05 C140.28 40.52, 141.96 50.46, 140.9 78.14 M140.9 26.05 C141.04 41.39, 141.03 58.86, 140.9 78.14 M140.9 78.14 C141.06 96.61, 133.73 104.14, 114.85 104.18 M140.9 78.14 C142.6 95.9, 132.07 104.84, 114.85 104.18 M114.85 104.18 C94.41 105.28, 70.02 104.35, 26.05 104.18 M114.85 104.18 C86.36 102.99, 58.03 103.07, 26.05 104.18 M26.05 104.18 C9.17 103.55, 1.79 95.31, 0 78.14 M26.05 104.18 C8.07 102.44, -0.07 96.1, 0 78.14 M0 78.14 C0.19 60.2, 1.4 47.59, 0 26.05 M0 78.14 C-0.93 61.17, -0.74 43.33, 0 26.05 M0 26.05 C-1.52 9.79, 8.5 -0.88, 26.05 0 M0 26.05 C-1.18 6.58, 6.84 -1.34, 26.05 0" stroke="#1e1e1e" stroke-width="1" fill="none"></path></g><g stroke-linecap="round" transform="translate(973.8886984376761 76.48053651043114) rotate(0 70.45001123974373 52.09031134090145)"><path d="M26.05 0 M26.05 0 C51.4 -1.88, 78.15 -1.75, 114.85 0 M26.05 0 C45.66 -0.22, 66.49 -0.27, 114.85 0 M114.85 0 C132.83 -0.61, 139.28 9.05, 140.9 26.05 M114.85 0 C134.5 1.92, 141.29 9.64, 140.9 26.05 M140.9 26.05 C141.43 42.82, 140.74 57.39, 140.9 78.14 M140.9 26.05 C140.76 39.53, 140.87 50.47, 140.9 78.14 M140.9 78.14 C141.14 95.37, 131.41 105.2, 114.85 104.18 M140.9 78.14 C142.69 95.49, 131.15 105.41, 114.85 104.18 M114.85 104.18 C92.74 102.95, 68.89 103.4, 26.05 104.18 M114.85 104.18 C85.53 105.18, 58.06 105.1, 26.05 104.18 M26.05 104.18 C7.71 103.26, 0.79 96.05, 0 78.14 M26.05 104.18 C10.55 102.38, 0.85 96.8, 0 78.14 M0 78.14 C1.93 63.92, 1.32 53.31, 0 26.05 M0 78.14 C0.31 61.07, 0.21 42.44, 0 26.05 M0 26.05 C1.67 9.85, 10.05 -1.33, 26.05 0 M0 26.05 C0.94 7.94, 7.84 1.32, 26.05 0" stroke="#1e1e1e" stroke-width="1" fill="none"></path></g><g transform="translate(1027.2599190738456 78.1884155707886) rotate(0 20.8856362463639 7.471970889063726)"><text x="0" y="0" font-family="Virgil, Segoe UI Emoji" font-size="11.955153422501969px" fill="#1e1e1e" text-anchor="start" style="white-space: pre;" direction="ltr" dominant-baseline="text-before-edge">Handler</text></g><g transform="translate(1275.2229115787463 78.6865469633928) rotate(0 38.67488757387855 14.943941778127453)"><text x="0" y="0" font-family="Virgil, Segoe UI Emoji" font-size="11.955153422501969px" fill="#1e1e1e" text-anchor="start" style="white-space: pre;" direction="ltr" dominant-baseline="text-before-edge">s1treamCaller</text><text x="0" y="14.94394177812746" font-family="Virgil, Segoe UI Emoji" font-size="11.955153422501969px" fill="#1e1e1e" text-anchor="start" style="white-space: pre;" direction="ltr" dominant-baseline="text-before-edge"></text></g><g stroke-linecap="round" transform="translate(628.8971282454763 109.95496609343667) rotate(0 70.45001123974373 52.09031134090145)"><path d="M26.05 0 M26.05 0 C50.91 0.14, 76.16 2.08, 114.85 0 M26.05 0 C50.85 -1.33, 74.83 -0.1, 114.85 0 M114.85 0 C133.09 1.98, 139.81 10.06, 140.9 26.05 M114.85 0 C133.84 -0.84, 142.39 8.13, 140.9 26.05 M140.9 26.05 C141.25 45.39, 141.31 67.16, 140.9 78.14 M140.9 26.05 C140.04 36.99, 141.67 47.22, 140.9 78.14 M140.9 78.14 C139 95.66, 131.74 103.74, 114.85 104.18 M140.9 78.14 C140.3 97.66, 134.31 103.74, 114.85 104.18 M114.85 104.18 C92.49 102.64, 73.68 105.53, 26.05 104.18 M114.85 104.18 C89.95 103.38, 65.27 103.25, 26.05 104.18 M26.05 104.18 C7.23 102.44, 1.3 96.79, 0 78.14 M26.05 104.18 C8.83 105.78, -1.75 96.72, 0 78.14 M0 78.14 C0.66 59.45, 1.97 35.57, 0 26.05 M0 78.14 C0.42 67.29, -0.65 54.05, 0 26.05 M0 26.05 C-1.81 9.79, 9.55 1.81, 26.05 0 M0 26.05 C-0.53 7.04, 10.77 1.44, 26.05 0" stroke="#1e1e1e" stroke-width="1" fill="none"></path></g><g transform="translate(669.6015791839948 116.61569442883058) rotate(0 27.72995519600545 7.471970889063726)"><text x="0" y="0" font-family="Virgil, Segoe UI Emoji" font-size="11.955153422501969px" fill="#1e1e1e" text-anchor="start" style="white-space: pre;" direction="ltr" dominant-baseline="text-before-edge">Middlware</text></g><g transform="translate(411.56951781499424 170.41388483008984) rotate(0 22.391979010437126 7.471970889063726)"><text x="0" y="0" font-family="Virgil, Segoe UI Emoji" font-size="11.955153422501969px" fill="#1e1e1e" text-anchor="start" style="white-space: pre;" direction="ltr" dominant-baseline="text-before-edge">request</text></g><g stroke-linecap="round"><g transform="translate(527.1929302011918 168.3752714275514) rotate(0 49.1925225052928 -2.602670794904924)"><path d="M0.47 -1.12 C16.58 -2.26, 80.73 -5.62, 96.91 -6.12 M-0.74 0.91 C15.71 -0.17, 82.9 -3.89, 99.13 -5.02" stroke="#1e1e1e" stroke-width="1" fill="none"></path></g><g transform="translate(527.1929302011918 168.3752714275514) rotate(0 49.1925225052928 -2.602670794904924)"><path d="M26.2 -14.48 C17.85 -9.47, 12.31 -3.89, -0.43 0.56 M27.63 -12.89 C17.72 -9.83, 8.65 -4.81, 0.17 -1.98" stroke="#1e1e1e" stroke-width="1" fill="none"></path></g><g transform="translate(527.1929302011918 168.3752714275514) rotate(0 49.1925225052928 -2.602670794904924)"><path d="M27.32 6.01 C18.47 4.41, 12.57 3.38, -0.43 0.56 M28.75 7.6 C18.37 3.61, 8.91 1.58, 0.17 -1.98" stroke="#1e1e1e" stroke-width="1" fill="none"></path></g><g transform="translate(527.1929302011918 168.3752714275514) rotate(0 49.1925225052928 -2.602670794904924)"><path d="M69.76 5.37 C79.03 2.5, 91.27 0.42, 98.23 -3.34 M71.19 6.96 C80.12 2.26, 89.99 -0.88, 98.83 -5.88" stroke="#1e1e1e" stroke-width="1" fill="none"></path></g><g transform="translate(527.1929302011918 168.3752714275514) rotate(0 49.1925225052928 -2.602670794904924)"><path d="M68.5 -15.11 C78.31 -11.38, 90.95 -6.85, 98.23 -3.34 M69.93 -13.52 C79.39 -11.17, 89.69 -7.27, 98.83 -5.88" stroke="#1e1e1e" stroke-width="1" fill="none"></path></g></g><mask></mask><g transform="translate(633.5937956614594 184.07691731294926) rotate(0 61.06089685171446 7.471970889063726)"><text x="0" y="0" font-family="Virgil, Segoe UI Emoji" font-size="11.955153422501969px" fill="#1e1e1e" text-anchor="start" style="white-space: pre;" direction="ltr" dominant-baseline="text-before-edge">data transformation</text></g><g stroke-linecap="round"><g transform="translate(779.6174553220189 165.69244030876848) rotate(0 95.76505574193959 -21.855160662042778)"><path d="M0.7 0.39 C32.73 -6.96, 160.31 -36.57, 191.92 -44.1 M-0.39 -0.45 C31.56 -7.62, 159.12 -35.43, 191.31 -42.68" stroke="#1e1e1e" stroke-width="1" fill="none"></path></g><g transform="translate(779.6174553220189 165.69244030876848) rotate(0 95.76505574193959 -21.855160662042778)"><path d="M26.49 -14.9 C18.5 -12.82, 10.39 -7.97, -0.46 -1.58 M26.28 -16.28 C18.89 -11.39, 11.93 -6.9, -0.22 1.21" stroke="#1e1e1e" stroke-width="1" fill="none"></path></g><g transform="translate(779.6174553220189 165.69244030876848) rotate(0 95.76505574193959 -21.855160662042778)"><path d="M31.13 5.09 C21.85 1.65, 12.45 0.95, -0.46 -1.58 M30.92 3.71 C22.24 2.73, 13.92 1.36, -0.22 1.21" stroke="#1e1e1e" stroke-width="1" fill="none"></path></g><g transform="translate(779.6174553220189 165.69244030876848) rotate(0 95.76505574193959 -21.855160662042778)"><path d="M166.66 -25.5 C172.67 -32.73, 178.57 -36.9, 190.15 -44.65 M166.44 -26.88 C173.99 -31.58, 181.85 -36.62, 190.39 -41.86" stroke="#1e1e1e" stroke-width="1" fill="none"></path></g><g transform="translate(779.6174553220189 165.69244030876848) rotate(0 95.76505574193959 -21.855160662042778)"><path d="M162.23 -45.54 C169.48 -47.23, 176.61 -45.83, 190.15 -44.65 M162.01 -46.92 C170.78 -45.74, 179.94 -44.89, 190.39 -41.86" stroke="#1e1e1e" stroke-width="1" fill="none"></path></g></g><mask></mask><g transform="translate(395.34466674159853 131.13266644186922) rotate(0 42.71572614710317 7.471970889063726)"><text x="0" y="0" font-family="Virgil, Segoe UI Emoji" font-size="11.955153422501969px" fill="#1e1e1e" text-anchor="start" style="white-space: pre;" direction="ltr" dominant-baseline="text-before-edge">streamFactory</text></g><g transform="translate(812.0671574688099 132.84054550222652) rotate(346.9553705455451 48.86664856971481 14.943941778127453)"><text x="0" y="0" font-family="Virgil, Segoe UI Emoji" font-size="11.955153422501969px" fill="#1e1e1e" text-anchor="start" style="white-space: pre;" direction="ltr" dominant-baseline="text-before-edge">JsonRPCRequest</text><text x="0" y="14.94394177812746" font-family="Virgil, Segoe UI Emoji" font-size="11.955153422501969px" fill="#1e1e1e" text-anchor="start" style="white-space: pre;" direction="ltr" dominant-baseline="text-before-edge">Uint8Array</text></g><g transform="translate(62.30824997190052 143.60018358247748) rotate(0 39.33838983261148 7.471970889063726)"><text x="0" y="0" font-family="Virgil, Segoe UI Emoji" font-size="11.955153422501969px" fill="#1e1e1e" text-anchor="start" style="white-space: pre;" direction="ltr" dominant-baseline="text-before-edge">methodsProxy</text></g><g stroke-linecap="round"><g transform="translate(181.0058446667415 187.4926754336633) rotate(0 86.07477956670732 -0.6380070842055261)"><path d="M-0.56 1.09 C27.97 0.66, 142.06 -1.99, 170.56 -2.37 M1.35 0.62 C30.3 0.31, 144.14 -0.53, 172.71 -1.18" stroke="#1e1e1e" stroke-width="1" fill="none"></path></g><g transform="translate(181.0058446667415 187.4926754336633) rotate(0 86.07477956670732 -0.6380070842055261)"><path d="M146.49 7.68 C150.43 5.03, 159.3 5.62, 173.47 -0.12 M143.68 10.41 C153.28 6.23, 160.7 4, 173.36 -0.19" stroke="#1e1e1e" stroke-width="1" fill="none"></path></g><g transform="translate(181.0058446667415 187.4926754336633) rotate(0 86.07477956670732 -0.6380070842055261)"><path d="M146.2 -12.84 C150.26 -10.44, 159.2 -4.81, 173.47 -0.12 M143.4 -10.11 C152.96 -8.46, 160.47 -4.86, 173.36 -0.19" stroke="#1e1e1e" stroke-width="1" fill="none"></path></g></g><mask></mask><g transform="translate(221.99494211531987 168.70600576973163) rotate(0 27.795708904671528 7.471970889063726)"><text x="0" y="0" font-family="Virgil, Segoe UI Emoji" font-size="11.955153422501969px" fill="#1e1e1e" text-anchor="start" style="white-space: pre;" direction="ltr" dominant-baseline="text-before-edge">Call Type</text></g><g transform="translate(210.03978869281787 196.88601026562912) rotate(0 46.081100193747034 7.471970889063726)"><text x="0" y="0" font-family="Virgil, Segoe UI Emoji" font-size="11.955153422501969px" fill="#1e1e1e" text-anchor="start" style="white-space: pre;" direction="ltr" dominant-baseline="text-before-edge">Timer attached</text></g><g stroke-linecap="round"><g transform="translate(1122.047206923683 114.90781536847487) rotate(0 58.26029549846976 -0.24391959348207592)"><path d="M-1.17 -0.53 C18.57 -0.85, 97.92 -2.02, 117.69 -2.29 M0.42 1.8 C20.13 1.68, 97.69 -0.58, 117.11 -1.06" stroke="#1e1e1e" stroke-width="1" fill="none"></path></g><g transform="translate(1122.047206923683 114.90781536847487) rotate(0 58.26029549846976 -0.24391959348207592)"><path d="M25.98 -10.05 C19.19 -8.2, 12.77 -5.78, 0.39 0.94 M26.17 -11.29 C15.83 -8.05, 5.76 -3.92, -2.17 -0.9" stroke="#1e1e1e" stroke-width="1" fill="none"></path></g><g transform="translate(1122.047206923683 114.90781536847487) rotate(0 58.26029549846976 -0.24391959348207592)"><path d="M26.29 10.47 C19.49 7.43, 13 4.97, 0.39 0.94 M26.48 9.22 C16.19 4.83, 6 1.31, -2.17 -0.9" stroke="#1e1e1e" stroke-width="1" fill="none"></path></g><g transform="translate(1122.047206923683 114.90781536847487) rotate(0 58.26029549846976 -0.24391959348207592)"><path d="M88.32 11.12 C94.9 8.35, 101.79 5.61, 118.67 0.41 M88.51 9.87 C99.17 4.83, 109.94 0.88, 116.11 -1.43" stroke="#1e1e1e" stroke-width="1" fill="none"></path></g><g transform="translate(1122.047206923683 114.90781536847487) rotate(0 58.26029549846976 -0.24391959348207592)"><path d="M87.77 -9.4 C94.42 -7.28, 101.44 -5.14, 118.67 0.41 M87.96 -10.64 C98.67 -8.05, 109.64 -4.36, 116.11 -1.43" stroke="#1e1e1e" stroke-width="1" fill="none"></path></g></g><mask></mask><g stroke-linecap="round" transform="translate(1468.9285714285725 10) rotate(0 507.7793017456361 98.49999999999997)"><path d="M32 0 M32 0 C290.76 -2.62, 549.67 -2.72, 983.56 0 M32 0 C261.15 2.98, 489.91 2.95, 983.56 0 M983.56 0 C1006.79 -0.28, 1016.96 11.42, 1015.56 32 M983.56 0 C1006.28 1.47, 1014 12.34, 1015.56 32 M1015.56 32 C1016.15 76.9, 1015.34 120.45, 1015.56 165 M1015.56 32 C1014.22 61.68, 1014.7 89.76, 1015.56 165 M1015.56 165 C1014.09 184.99, 1005.47 197.4, 983.56 197 M1015.56 165 C1015.78 186.28, 1006.12 197.62, 983.56 197 M983.56 197 C666.03 194.43, 349.59 194.18, 32 197 M983.56 197 C701.43 195.01, 420.11 194.83, 32 197 M32 197 C11.69 198.59, -1.47 185.9, 0 165 M32 197 C10.47 195.31, 0.4 187.93, 0 165 M0 165 C-0.67 113.69, 0 67.22, 0 32 M0 165 C-0.46 112.49, -0.71 58.58, 0 32 M0 32 C-1.03 12.16, 9.67 -0.98, 32 0 M0 32 C1.29 11.17, 12.84 1.12, 32 0" stroke="#1e1e1e" stroke-width="1" fill="none"></path></g><g transform="translate(1911.5676496401784 23.125935162094834) rotate(0 32.22999909512714 16.038029925187033)"><text x="0" y="0" font-family="Virgil, Segoe UI Emoji" font-size="12.830423940149625px" fill="#1e1e1e" text-anchor="start" style="white-space: pre;" direction="ltr" dominant-baseline="text-before-edge">RPCCLient</text><text x="0" y="16.038029925187033" font-family="Virgil, Segoe UI Emoji" font-size="12.830423940149625px" fill="#1e1e1e" text-anchor="start" style="white-space: pre;" direction="ltr" dominant-baseline="text-before-edge"></text></g><g stroke-linecap="round"><g transform="translate(1401.6384174440832 117.21196810811045) rotate(0 35.44107974288795 1.6727003229792956)"><path d="M-0.61 -0.27 C11.48 0.31, 59.54 2.92, 71.5 3.61" stroke="#1e1e1e" stroke-width="1.5" fill="none" stroke-dasharray="8 9"></path></g><g transform="translate(1401.6384174440832 117.21196810811045) rotate(0 35.44107974288795 1.6727003229792956)"><path d="M27.64 -8.53 C21.21 -7.41, 15.59 -6.34, -1.23 -1.79" stroke="#1e1e1e" stroke-width="1.5" fill="none"></path></g><g transform="translate(1401.6384174440832 117.21196810811045) rotate(0 35.44107974288795 1.6727003229792956)"><path d="M26.55 11.96 C20.33 8.72, 14.94 5.42, -1.23 -1.79" stroke="#1e1e1e" stroke-width="1.5" fill="none"></path></g><g transform="translate(1401.6384174440832 117.21196810811045) rotate(0 35.44107974288795 1.6727003229792956)"><path d="M42.33 12.77 C48.12 10.47, 54.75 7.83, 70.88 2.08" stroke="#1e1e1e" stroke-width="1.5" fill="none"></path></g><g transform="translate(1401.6384174440832 117.21196810811045) rotate(0 35.44107974288795 1.6727003229792956)"><path d="M43.48 -7.71 C49.05 -5.65, 55.43 -3.93, 70.88 2.08" stroke="#1e1e1e" stroke-width="1.5" fill="none"></path></g></g><mask></mask><g stroke-linecap="round" transform="translate(1492.6436587103676 78.17768079800493) rotate(0 75.60785536159597 55.903990024937656)"><path d="M27.95 0 M27.95 0 C60.36 0.89, 87.23 0.63, 123.26 0 M27.95 0 C57.15 -0.02, 84.39 -0.59, 123.26 0 M123.26 0 C142.89 0, 151.71 8.71, 151.22 27.95 M123.26 0 C140.54 0.24, 152.46 9.81, 151.22 27.95 M151.22 27.95 C151.12 45.39, 149.16 66.51, 151.22 83.86 M151.22 27.95 C152.27 43.5, 151.8 59.55, 151.22 83.86 M151.22 83.86 C152.2 100.79, 142.82 110.63, 123.26 111.81 M151.22 83.86 C153.37 102.52, 143.72 112.64, 123.26 111.81 M123.26 111.81 C101.43 111.63, 83.42 111.18, 27.95 111.81 M123.26 111.81 C91.82 111.7, 60.36 112.6, 27.95 111.81 M27.95 111.81 C7.37 113.79, 1.31 104.31, 0 83.86 M27.95 111.81 C11.03 113.76, -1.93 104.65, 0 83.86 M0 83.86 C0.76 68.21, 0.47 49.71, 0 27.95 M0 83.86 C-0.28 71.05, 0.14 59.52, 0 27.95 M0 27.95 C0.75 9.25, 9.96 0.78, 27.95 0 M0 27.95 C-2.1 9.36, 9.84 0, 27.95 0" stroke="#1e1e1e" stroke-width="1" fill="none"></path></g><g stroke-linecap="round" transform="translate(371.0073901315061 122.93484695215466) rotate(0 70.45001123974373 52.09031134090145)"><path d="M26.05 0 M26.05 0 C43.56 0.27, 64.73 1.5, 114.85 0 M26.05 0 C52.24 -0.19, 78.83 -0.09, 114.85 0 M114.85 0 C131.98 -0.89, 141.65 8.61, 140.9 26.05 M114.85 0 C132.95 0.9, 138.8 8.72, 140.9 26.05 M140.9 26.05 C141.48 42.67, 141.76 59.96, 140.9 78.14 M140.9 26.05 C141.54 44.14, 141.4 61.18, 140.9 78.14 M140.9 78.14 C141.25 94.2, 132.19 102.2, 114.85 104.18 M140.9 78.14 C139.23 96.38, 131.6 102.01, 114.85 104.18 M114.85 104.18 C94.67 103.89, 73.02 103.2, 26.05 104.18 M114.85 104.18 C91.3 104.27, 68 103.65, 26.05 104.18 M26.05 104.18 C9.92 105.82, -1 94.51, 0 78.14 M26.05 104.18 C10.41 103.38, -2.18 94.5, 0 78.14 M0 78.14 C0.35 67.28, -0.33 51.35, 0 26.05 M0 78.14 C-0.7 56.54, -0.57 36.56, 0 26.05 M0 26.05 C1.87 8.6, 8.38 -1.57, 26.05 0 M0 26.05 C1 6.77, 6.52 -1.93, 26.05 0" stroke="#1e1e1e" stroke-width="1" fill="none"></path></g><g stroke-linecap="round" transform="translate(31.481032932450262 143.25860777040805) rotate(0 70.45001123974373 52.09031134090145)"><path d="M26.05 0 M26.05 0 C59.45 -1.15, 95.15 -0.55, 114.85 0 M26.05 0 C44.78 0.38, 64.35 -1.02, 114.85 0 M114.85 0 C133.95 -0.25, 139.73 8.34, 140.9 26.05 M114.85 0 C131.54 -0.81, 142.62 9.42, 140.9 26.05 M140.9 26.05 C142.04 35.62, 139.45 45.9, 140.9 78.14 M140.9 26.05 C140.27 38.46, 141.17 51.47, 140.9 78.14 M140.9 78.14 C140.24 97.27, 133.18 105.04, 114.85 104.18 M140.9 78.14 C139.38 93.96, 132.59 105.19, 114.85 104.18 M114.85 104.18 C93.64 105.75, 75.55 106.38, 26.05 104.18 M114.85 104.18 C84.31 104.64, 52.92 104.86, 26.05 104.18 M26.05 104.18 C7.28 105.66, 0.71 94.57, 0 78.14 M26.05 104.18 C7.1 102.37, -1.59 93.62, 0 78.14 M0 78.14 C1.67 58.31, 2.05 39.83, 0 26.05 M0 78.14 C-0.93 58.72, 0.06 36.94, 0 26.05 M0 26.05 C0.98 7.44, 8.75 -1.3, 26.05 0 M0 26.05 C0.74 7.14, 8.76 -0.05, 26.05 0" stroke="#1e1e1e" stroke-width="1" fill="none"></path></g><g transform="translate(1529.7602422515156 90.45822942643383) rotate(0 41.422989234068154 8.019014962593502)"><text x="0" y="0" font-family="Virgil, Segoe UI Emoji" font-size="12.830423940149625px" fill="#1e1e1e" text-anchor="start" style="white-space: pre;" direction="ltr" dominant-baseline="text-before-edge">handleStream</text></g><g transform="translate(2087.338474915652 77.44451371571063) rotate(0 22.41473261198189 8.019014962593502)"><text x="0" y="0" font-family="Virgil, Segoe UI Emoji" font-size="12.830423940149625px" fill="#1e1e1e" text-anchor="start" style="white-space: pre;" direction="ltr" dominant-baseline="text-before-edge">Handler</text></g><g stroke-linecap="round"><g transform="translate(1657.8858564617885 117.99684653094977) rotate(0 63.02366769552532 -2.3023388130403077)"><path d="M-0.14 0.35 C21 -0.1, 106.75 -2.48, 127.72 -3.08 M-1.67 -0.52 C19.31 -1.29, 105.62 -4.74, 127.23 -4.95" stroke="#1e1e1e" stroke-width="1" fill="none"></path></g><g transform="translate(1657.8858564617885 117.99684653094977) rotate(0 63.02366769552532 -2.3023388130403077)"><path d="M28.35 -9.19 C18.09 -8.5, 7.35 -1.55, -1.05 -0.91 M27.52 -10.13 C21.39 -8.09, 13.83 -5.94, -1.08 0.98" stroke="#1e1e1e" stroke-width="1" fill="none"></path></g><g transform="translate(1657.8858564617885 117.99684653094977) rotate(0 63.02366769552532 -2.3023388130403077)"><path d="M28.89 11.33 C18.5 4.34, 7.56 3.61, -1.05 -0.91 M28.06 10.39 C21.85 7.08, 14.15 3.89, -1.08 0.98" stroke="#1e1e1e" stroke-width="1" fill="none"></path></g><g transform="translate(1657.8858564617885 117.99684653094977) rotate(0 63.02366769552532 -2.3023388130403077)"><path d="M99.91 7.54 C110.61 0.05, 120.75 -1.24, 126.32 -6.21 M99.08 6.6 C107.54 3.15, 114.51 -0.43, 126.29 -4.32" stroke="#1e1e1e" stroke-width="1" fill="none"></path></g><g transform="translate(1657.8858564617885 117.99684653094977) rotate(0 63.02366769552532 -2.3023388130403077)"><path d="M99.35 -12.98 C110.19 -12.79, 120.54 -6.4, 126.32 -6.21 M98.52 -13.92 C107.07 -12.03, 114.18 -10.26, 126.29 -4.32" stroke="#1e1e1e" stroke-width="1" fill="none"></path></g></g><mask></mask><g transform="translate(1676.027075169221 100.72256857855348) rotate(0 50.87258393627758 8.019014962593502)"><text x="0" y="0" font-family="Virgil, Segoe UI Emoji" font-size="12.830423940149625px" fill="#1e1e1e" text-anchor="start" style="white-space: pre;" direction="ltr" dominant-baseline="text-before-edge">AbortController </text></g><g transform="translate(1700.4048806555056 117.40211970074802) rotate(0 16.89123471419407 8.019014962593502)"><text x="0" y="0" font-family="Virgil, Segoe UI Emoji" font-size="12.830423940149625px" fill="#1e1e1e" text-anchor="start" style="white-space: pre;" direction="ltr" dominant-baseline="text-before-edge">Timer</text></g><g stroke-linecap="round" transform="translate(1796.7247060919144 76.89463840398992) rotate(0 75.60785536159597 55.903990024937656)"><path d="M27.95 0 M27.95 0 C52.2 -2.9, 78.54 -2.48, 123.26 0 M27.95 0 C59.46 -0.41, 91.49 -0.06, 123.26 0 M123.26 0 C142.05 -0.53, 149.93 8.04, 151.22 27.95 M123.26 0 C141.69 0.44, 152.36 8.64, 151.22 27.95 M151.22 27.95 C149.66 43.53, 149.75 57.08, 151.22 83.86 M151.22 27.95 C151.47 43.49, 150.95 57.87, 151.22 83.86 M151.22 83.86 C152.01 101.52, 140.8 111.52, 123.26 111.81 M151.22 83.86 C152.22 100.25, 142.6 109.61, 123.26 111.81 M123.26 111.81 C97.8 111.43, 69.66 113.52, 27.95 111.81 M123.26 111.81 C94.07 112.43, 63.92 111.39, 27.95 111.81 M27.95 111.81 C9.04 111.89, 0.97 100.52, 0 83.86 M27.95 111.81 C7.44 111.51, -0.5 101.3, 0 83.86 M0 83.86 C0.16 65.41, -1.14 48.13, 0 27.95 M0 83.86 C-0.32 69.17, 0.34 54.84, 0 27.95 M0 27.95 C-1.93 10.34, 7.53 1.87, 27.95 0 M0 27.95 C1.01 7.39, 10.26 -1.8, 27.95 0" stroke="#1e1e1e" stroke-width="1" fill="none"></path></g><g transform="translate(1801.7652297826876 156.44326683291797) rotate(0 65.53133741459646 8.019014962593502)"><text x="0" y="0" font-family="Virgil, Segoe UI Emoji" font-size="12.830423940149625px" fill="#1e1e1e" text-anchor="start" style="white-space: pre;" direction="ltr" dominant-baseline="text-before-edge">data transformation</text></g><g stroke-linecap="round" transform="translate(2040.5027609547574 73.04551122194499) rotate(0 75.60785536159597 55.903990024937656)"><path d="M27.95 0 M27.95 0 C49.13 -0.53, 70.4 -0.77, 123.26 0 M27.95 0 C60.51 0.97, 93.83 0.31, 123.26 0 M123.26 0 C141.99 -1.7, 151.43 8.56, 151.22 27.95 M123.26 0 C140.07 -0.69, 153.04 11.43, 151.22 27.95 M151.22 27.95 C149.99 43.53, 153.02 58.6, 151.22 83.86 M151.22 27.95 C150.91 46.36, 150.77 66.14, 151.22 83.86 M151.22 83.86 C149.39 102.45, 141.42 111.88, 123.26 111.81 M151.22 83.86 C152.57 101.05, 141.73 110.42, 123.26 111.81 M123.26 111.81 C89.4 111.58, 57.16 110.39, 27.95 111.81 M123.26 111.81 C101.79 112.83, 81.16 113.09, 27.95 111.81 M27.95 111.81 C8.29 111.6, -0.62 101.02, 0 83.86 M27.95 111.81 C10.96 110.94, 0.33 104.65, 0 83.86 M0 83.86 C-1.09 61.54, 0.75 39.74, 0 27.95 M0 83.86 C-0.3 67.4, -0.1 50.97, 0 27.95 M0 27.95 C0.58 8.39, 7.72 0.39, 27.95 0 M0 27.95 C1.38 7.39, 8.39 -0.79, 27.95 0" stroke="#1e1e1e" stroke-width="1" fill="none"></path></g><g stroke-linecap="round"><g transform="translate(1957.2554820432956 124.3424498037026) rotate(0 36.607975994591015 -1.7882028182118574)"><path d="M0.55 0.35 C12.47 -0.27, 59.85 -3.23, 71.75 -3.93 M-0.62 -0.51 C11.62 -0.98, 61.34 -2.41, 73.84 -2.82" stroke="#1e1e1e" stroke-width="1" fill="none"></path></g><g transform="translate(1957.2554820432956 124.3424498037026) rotate(0 36.607975994591015 -1.7882028182118574)"><path d="M28.66 -13.57 C17.86 -9.23, 9.12 -5.35, 1.37 2.24 M28.16 -12.35 C20.6 -7.87, 10.94 -3.63, 1.22 0.24" stroke="#1e1e1e" stroke-width="1" fill="none"></path></g><g transform="translate(1957.2554820432956 124.3424498037026) rotate(0 36.607975994591015 -1.7882028182118574)"><path d="M29.89 6.91 C18.73 4.67, 9.6 1.98, 1.37 2.24 M29.39 8.13 C21.31 6.36, 11.28 4.35, 1.22 0.24" stroke="#1e1e1e" stroke-width="1" fill="none"></path></g><g transform="translate(1957.2554820432956 124.3424498037026) rotate(0 36.607975994591015 -1.7882028182118574)"><path d="M46.56 6.3 C53.59 2.98, 62.66 -0.53, 74.66 -0.93 M46.05 7.52 C55.23 5.08, 62.48 2.29, 74.51 -2.93" stroke="#1e1e1e" stroke-width="1" fill="none"></path></g><g transform="translate(1957.2554820432956 124.3424498037026) rotate(0 36.607975994591015 -1.7882028182118574)"><path d="M45.93 -14.21 C53.13 -10.94, 62.4 -7.87, 74.66 -0.93 M45.43 -12.99 C54.94 -9.17, 62.38 -5.7, 74.51 -2.93" stroke="#1e1e1e" stroke-width="1" fill="none"></path></g></g><mask></mask><g stroke-linecap="round"><g transform="translate(2208.4896686854304 112.2699501246882) rotate(0 51.27324844296845 1.482573073747517)"><path d="M-0.96 0.03 C16.47 0.65, 86.26 2.71, 103.5 2.93" stroke="#1e1e1e" stroke-width="1.5" fill="none" stroke-dasharray="8 9"></path></g><g transform="translate(2208.4896686854304 112.2699501246882) rotate(0 51.27324844296845 1.482573073747517)"><path d="M27.58 -7.96 C21.99 -7.89, 13.35 -7.35, 0.75 -1.01" stroke="#1e1e1e" stroke-width="1.5" fill="none"></path></g><g transform="translate(2208.4896686854304 112.2699501246882) rotate(0 51.27324844296845 1.482573073747517)"><path d="M26.97 12.55 C21.64 8.25, 13.13 4.4, 0.75 -1.01" stroke="#1e1e1e" stroke-width="1.5" fill="none"></path></g><g transform="translate(2208.4896686854304 112.2699501246882) rotate(0 51.27324844296845 1.482573073747517)"><path d="M75.14 13.98 C81.83 10.44, 85.34 6.91, 105.21 1.89" stroke="#1e1e1e" stroke-width="1.5" fill="none"></path></g><g transform="translate(2208.4896686854304 112.2699501246882) rotate(0 51.27324844296845 1.482573073747517)"><path d="M75.61 -6.53 C82.07 -5.7, 85.48 -4.85, 105.21 1.89" stroke="#1e1e1e" stroke-width="1.5" fill="none"></path></g></g><mask></mask><g stroke-linecap="round" transform="translate(2322.680441752762 60.94825436408968) rotate(0 66.07668329177068 64.1521197007481)"><path d="M32 0 M32 0 C49.97 -1.82, 65.32 1.04, 100.15 0 M32 0 C52.76 0.7, 72.51 -0.74, 100.15 0 M100.15 0 C120.18 -0.27, 132.35 8.93, 132.15 32 M100.15 0 C122.79 0.38, 130.33 12.03, 132.15 32 M132.15 32 C133.27 52.01, 133.01 69.94, 132.15 96.3 M132.15 32 C132.18 50.65, 132.33 68.61, 132.15 96.3 M132.15 96.3 C131.65 116.19, 120.18 127.59, 100.15 128.3 M132.15 96.3 C131.31 118.49, 119.63 129.88, 100.15 128.3 M100.15 128.3 C78.22 126.82, 54.45 128.5, 32 128.3 M100.15 128.3 C79.71 127.34, 57.76 127.5, 32 128.3 M32 128.3 C10.81 128.66, 0.66 118.92, 0 96.3 M32 128.3 C8.49 126.4, -0.87 119.73, 0 96.3 M0 96.3 C0.62 81.49, 1.38 66.57, 0 32 M0 96.3 C1.33 82.88, -0.2 67.73, 0 32 M0 32 C-1.39 11.45, 11.8 -1.21, 32 0 M0 32 C0.95 12.35, 10.03 -0.56, 32 0" stroke="#1e1e1e" stroke-width="1" fill="none"></path></g><g transform="translate(2353.473459209121 76.3447630922692) rotate(0 28.047278149764225 8.019014962593502)"><text x="0" y="0" font-family="Virgil, Segoe UI Emoji" font-size="12.830423940149625px" fill="#1e1e1e" text-anchor="start" style="white-space: pre;" direction="ltr" dominant-baseline="text-before-edge">Response</text></g><g transform="translate(1848.6268698424287 91.03865336658316) rotate(0 29.76014346553211 8.019014962593502)"><text x="0" y="0" font-family="Virgil, Segoe UI Emoji" font-size="12.830423940149625px" fill="#1e1e1e" text-anchor="start" style="white-space: pre;" direction="ltr" dominant-baseline="text-before-edge">Middlware</text></g></svg>